<svg xmlns="http://www.w3.org/2000/svg" viewBox="0 0 176 90"><defs><style>.cls-1{fill:#f9cc10;}</style></defs><g id="Слой_2" data-name="Слой 2"><g id="Слой_1-2" data-name="Слой 1"><g id="Слой_2-2" data-name="Слой 2"><g id="Слой_1-2-2" data-name="Слой 1-2"><path class="cls-1" d="M164.5,22H153V0H0L.2,44.8.5,89.5l76.3.3L153,90V68.1l11.3-.3,11.2-.3.3-22.7L176,22ZM75.8,77.8l-63.3-.3-.3-32.7L12,12H139V78Z"/><path class="cls-1" d="M71.9,20.2l-13.4.3L44.8,44C37.3,56.9,31.1,67.8,31.1,68.3s5.9.7,13.2.7H57.6L70.7,46.3C78,33.7,84.2,22.7,84.6,21.7,85.2,20.1,84.3,20,71.9,20.2Z"/><path class="cls-1" d="M35.5,20H22V44.2c0,13.3.2,23.9.4,23.7C23.7,66.3,49,21.8,49,21,49,20.4,43.8,20,35.5,20Z"/></g></g></g></g></svg>