<svg xmlns="http://www.w3.org/2000/svg" viewBox="0 0 176 90"><defs><style>.cls-1{fill:#15aa00;}</style></defs><g id="Слой_2" data-name="Слой 2"><g id="Слой_1-2" data-name="Слой 1"><g id="Слой_2-2" data-name="Слой 2"><g id="Слой_1-2-2" data-name="Слой 1-2"><path class="cls-1" d="M164.5,22H153V0H0L.2,44.8.5,89.5l76.3.3L153,90V68.1l11.3-.3,11.2-.3.3-22.7L176,22ZM75.8,77.8l-63.3-.3-.3-32.7L12,12H139V78Z"/><path class="cls-1" d="M129.3,22c-.6.1-25.7,42.8-27.1,46.2-.2.4,6,.8,13.7.8H130V45.5C130,32.6,129.7,22,129.3,22Z"/><path class="cls-1" d="M120.2,20.6c-.3-.3-6.3-.6-13.3-.6H94.2L81.4,42.3C74.4,54.5,68,65.5,67.2,66.8l-1.5,2.3,13.8-.3,13.8-.3L107,44.8C114.6,31.8,120.5,20.9,120.2,20.6Z"/><path class="cls-1" d="M71.9,20.2l-13.4.3L44.8,44C37.3,56.9,31.1,67.8,31.1,68.3s5.9.7,13.2.7H57.6L70.7,46.3C78,33.7,84.2,22.7,84.6,21.7,85.2,20.1,84.3,20,71.9,20.2Z"/><path class="cls-1" d="M35.5,20H22V44.2c0,13.3.2,23.9.4,23.7C23.7,66.3,49,21.8,49,21,49,20.4,43.8,20,35.5,20Z"/></g></g></g></g></svg>