<svg xmlns="http://www.w3.org/2000/svg" viewBox="0 0 96.13 49.46"><g id="Слой_2" data-name="Слой 2"><g id="Слой_1-2" data-name="Слой 1"><g id="Слой_2-2" data-name="Слой 2"><g id="Слой_1-2-2" data-name="Слой 1-2"><path d="M89.85,12H83.57V0H0L.11,24.47,0,49.16l41.81.3,41.76-.3v-12L89.74,37l6.39-.17L96,24.47,96.13,12ZM41.4,42.49,6.83,42.33,6.66,24.47,6.55,6.55H75.92V42.6Z"/><path d="M70.62,12c-.33.05-14,23.37-14.8,25.23-.11.22,3.28.44,7.48.44H71V24.85C71,17.81,70.84,12,70.62,12Z"/><path d="M65.65,11.25a46.42,46.42,0,0,0-7.26-.33H51.45l-7,12.18c-3.82,6.67-7.32,12.68-7.76,13.39l-.82,1.25,7.54-.16L51,37.41l7.48-12.94C62.59,17.37,65.82,11.42,65.65,11.25Z"/><path d="M39.27,11,32,11.2,24.47,24C20.37,31.08,17,37,17,37.3s3.22.39,7.21.39h7.26l7.16-12.4c4-6.88,7.37-12.89,7.59-13.44C46.54,11,46,10.92,39.27,11Z"/><path d="M19.39,10.92H12V24.14c0,7.27.11,13.06.21,13,.71-.88,14.53-25.18,14.53-25.62S23.92,10.92,19.39,10.92Z"/></g></g></g></g></svg>