<svg xmlns="http://www.w3.org/2000/svg" viewBox="0 0 251.82 100.81"><defs><style>.cls-1{font-size:8px;letter-spacing:0.05em;}.cls-1,.cls-6,.cls-7,.cls-8{fill:#e30613;}.cls-1,.cls-6{font-family:Corbel-Bold, Corbel;font-weight:700;}.cls-2{letter-spacing:-0.02em;}.cls-3{letter-spacing:0.03em;}.cls-4{letter-spacing:0.05em;}.cls-5{fill:none;stroke-width:3px;}.cls-5,.cls-7{stroke:#e30613;stroke-miterlimit:10;}.cls-6{font-size:12px;letter-spacing:0.17em;}.cls-7{font-size:28px;font-family:CenturyGothic, Century Gothic;}</style></defs><g id="Слой_2" data-name="Слой 2"><g id="Слой_1-2" data-name="Слой 1"><text class="cls-1" transform="translate(177.67 6.61)">SPOR<tspan class="cls-2" x="21.92" y="0">T</tspan><tspan class="cls-3" x="26.34" y="0">-</tspan><tspan class="cls-4" x="29.24" y="0">STYLE.PRO</tspan></text><polyline class="cls-5" points="39.72 93.39 1.5 93.39 1.5 11.62 248.91 11.62 248.91 93.39 210.09 93.39"/><text class="cls-6" transform="translate(61.33 97.93)">SPORT &amp; FITNESS</text><text class="cls-7" transform="translate(147.59 62.56)">СТИЛЬ</text><text class="cls-7" transform="translate(8.83 62.56)">СПОРТ</text><path class="cls-8" d="M141,49.41h-.81V47.05A2.16,2.16,0,0,0,138,44.89h-1.45V44.1A2.16,2.16,0,0,0,134.43,42h-1.6a2.15,2.15,0,0,0-2.15,2.15v5.3h-11V44.1A2.16,2.16,0,0,0,117.58,42H116a2.16,2.16,0,0,0-2.15,2.15v1.47h-1.45a2.16,2.16,0,0,0-2.16,2.16v2h-.82a2.13,2.13,0,0,0-2.08,2.16v1.58a2.13,2.13,0,0,0,2.08,2.16h.82V58a2.16,2.16,0,0,0,2.16,2.15h1.45v.79A2.16,2.16,0,0,0,116,63.06h1.61a2.16,2.16,0,0,0,2.15-2.16V55.32h11V60.9a2.16,2.16,0,0,0,2.15,2.16h1.6a2.16,2.16,0,0,0,2.16-2.16V59.44H138a2.16,2.16,0,0,0,2.16-2.16v-2H141a2.13,2.13,0,0,0,2.09-2.16V51.57A2.13,2.13,0,0,0,141,49.41Zm-31.62,4.92a.86.86,0,0,1-.81-.89V51.86a.86.86,0,0,1,.81-.89h.82v3.36Zm3,4.51a.88.88,0,0,1-.89-.88V47.73a.89.89,0,0,1,.89-.89h1.45v12Zm6.09,2.06a.88.88,0,0,1-.88.89H116a.89.89,0,0,1-.88-.89V44.1a.89.89,0,0,1,.88-.88h1.61a.88.88,0,0,1,.88.88Zm1.27-6.85V50.67h11v3.38Zm15.59,6.85a.89.89,0,0,1-.89.89h-1.6a.89.89,0,0,1-.89-.89V44.1a.89.89,0,0,1,.89-.88h1.6a.89.89,0,0,1,.89.88Zm3.61-3.62a.89.89,0,0,1-.89.89h-1.45v-12H138a.89.89,0,0,1,.89.89Zm2.9-4.13A.86.86,0,0,1,141,54h-.81V50.68H141a.86.86,0,0,1,.82.89Z"/><rect class="cls-8" x="119.41" y="50.38" width="11.57" height="4.09"/><rect class="cls-8" x="107.59" y="51.07" width="4.09" height="3.15" transform="translate(162.28 -56.98) rotate(90)"/><rect class="cls-8" x="138.66" y="51.07" width="4.09" height="3.15" transform="translate(193.35 -88.06) rotate(90)"/></g></g></svg>