<svg xmlns="http://www.w3.org/2000/svg" viewBox="0 0 250.41 90.69"><defs><style>.cls-1{fill:none;stroke-width:3px;}.cls-1,.cls-3{stroke:#e30613;stroke-miterlimit:10;}.cls-2{font-size:12px;font-family:Corbel-Bold, Corbel;font-weight:700;letter-spacing:0.17em;}.cls-2,.cls-3,.cls-4{fill:#e30613;}.cls-3{font-size:28px;font-family:CenturyGothic, Century Gothic;}</style></defs><g id="Слой_2" data-name="Слой 2"><g id="Слой_1-2" data-name="Слой 1"><polyline class="cls-1" points="39.72 83.28 1.5 83.28 1.5 1.5 248.91 1.5 248.91 83.28 210.09 83.28"/><text class="cls-2" transform="translate(61.33 87.81)">SPORT &amp; FITNESS</text><text class="cls-3" transform="translate(147.59 52.44)">СТИЛЬ</text><text class="cls-3" transform="translate(8.83 52.44)">СПОРТ</text><path class="cls-4" d="M141,39.3h-.81V36.94A2.16,2.16,0,0,0,138,34.78h-1.45V34a2.16,2.16,0,0,0-2.16-2.16h-1.6A2.16,2.16,0,0,0,130.68,34v5.3h-11V34a2.16,2.16,0,0,0-2.15-2.16H116A2.16,2.16,0,0,0,113.82,34v1.47h-1.45a2.16,2.16,0,0,0-2.16,2.15v2h-.82a2.13,2.13,0,0,0-2.08,2.16v1.58a2.13,2.13,0,0,0,2.08,2.16h.82v2.36A2.16,2.16,0,0,0,112.37,50h1.45v.79A2.15,2.15,0,0,0,116,52.94h1.61a2.15,2.15,0,0,0,2.15-2.15V45.2h11v5.59a2.15,2.15,0,0,0,2.15,2.15h1.6a2.16,2.16,0,0,0,2.16-2.15V49.32H138a2.16,2.16,0,0,0,2.16-2.16v-2H141A2.12,2.12,0,0,0,143.1,43V41.45A2.12,2.12,0,0,0,141,39.3Zm-31.62,4.91a.86.86,0,0,1-.81-.89V41.74a.86.86,0,0,1,.81-.89h.82v3.36Zm3,4.52a.89.89,0,0,1-.89-.89V37.61a.88.88,0,0,1,.89-.88h1.45v12Zm6.09,2.06a.88.88,0,0,1-.88.89H116a.89.89,0,0,1-.88-.89V34a.89.89,0,0,1,.88-.89h1.61a.88.88,0,0,1,.88.89Zm1.27-6.86V40.56h11v3.37Zm15.59,6.86a.89.89,0,0,1-.89.89h-1.6a.89.89,0,0,1-.89-.89V34a.89.89,0,0,1,.89-.89h1.6a.89.89,0,0,1,.89.89Zm3.61-3.63a.89.89,0,0,1-.89.89h-1.45v-12H138a.89.89,0,0,1,.89.89Zm2.9-4.12a.86.86,0,0,1-.82.89h-.81V40.57H141a.85.85,0,0,1,.82.88Z"/><rect class="cls-4" x="119.41" y="40.27" width="11.57" height="4.09"/><rect class="cls-4" x="107.59" y="40.96" width="4.09" height="3.15" transform="translate(152.17 -67.1) rotate(90)"/><rect class="cls-4" x="138.66" y="40.96" width="4.09" height="3.15" transform="translate(183.24 -98.17) rotate(90)"/></g></g></svg>